HIERARCHY
ROOT Hips
{
 OFFSET 0.000000 0.000000 0.000000
 CHANNELS 6 Xposition Yposition Zposition Yrotation Xrotation Zrotation
 JOINT Chest
 {
  OFFSET 0.000000 9.585900 0.002600
  CHANNELS 3 Yrotation Xrotation Zrotation
  JOINT Chest2
  {
   OFFSET 0.000000 9.601200 -0.005300
   CHANNELS 3 Yrotation Xrotation Zrotation
   JOINT Chest3
   {
    OFFSET 0.000000 9.561800 0.000000
    CHANNELS 3 Yrotation Xrotation Zrotation
    JOINT Chest4
    {
     OFFSET 0.000000 9.552100 0.000000
     CHANNELS 3 Yrotation Xrotation Zrotation
     JOINT Neck
     {
      OFFSET 0.000000 14.453000 0.000000
      CHANNELS 3 Yrotation Xrotation Zrotation
      JOINT Head
      {
       OFFSET 0.000000 8.936500 -0.011300
       CHANNELS 3 Yrotation Xrotation Zrotation
       End Site
       {
        OFFSET 0.000000 17.073600 -0.006000
       }
      }
     }
     JOINT RightCollar
     {
      OFFSET -2.921100 9.558500 0.000000
      CHANNELS 3 Yrotation Xrotation Zrotation
      JOINT RightShoulder
      {
       OFFSET -13.519700 0.000000 0.000000
       CHANNELS 3 Yrotation Xrotation Zrotation
       JOINT RightElbow
       {
        OFFSET 0.000000 -29.696600 0.000000
        CHANNELS 3 Yrotation Xrotation Zrotation
        JOINT RightWrist
        {
         OFFSET 0.000000 -24.004700 0.000000
         CHANNELS 3 Yrotation Xrotation Zrotation
         End Site
         {
          OFFSET 0.000000 -17.728500 0.000000
         }
        }
       }
      }
     }
     JOINT LeftCollar
     {
      OFFSET 2.921100 9.558500 0.000000
      CHANNELS 3 Yrotation Xrotation Zrotation
      JOINT LeftShoulder
      {
       OFFSET 13.519700 0.000000 0.000000
       CHANNELS 3 Yrotation Xrotation Zrotation
       JOINT LeftElbow
       {
        OFFSET 0.000000 -29.696600 0.000000
        CHANNELS 3 Yrotation Xrotation Zrotation
        JOINT LeftWrist
        {
         OFFSET 0.000000 -24.004700 0.000000
         CHANNELS 3 Yrotation Xrotation Zrotation
         End Site
         {
          OFFSET 0.000000 -17.728500 0.000000
         }
        }
       }
      }
     }
    }
   }
  }
 }
 JOINT RightHip
 {
  OFFSET -7.771700 -0.012900 -0.001300
  CHANNELS 3 Yrotation Xrotation Zrotation
  JOINT RightKnee
  {
   OFFSET 0.000000 -40.869800 0.001200
   CHANNELS 3 Yrotation Xrotation Zrotation
   JOINT RightAnkle
   {
    OFFSET 0.000000 -39.717900 0.002100
    CHANNELS 3 Yrotation Xrotation Zrotation
    JOINT RightToe
    {
     OFFSET 0.000000 -4.965400 11.033500
     CHANNELS 3 Yrotation Xrotation Zrotation
     End Site
     {
      OFFSET 0.000000 -1.423100 5.872300
     }
    }
   }
  }
 }
 JOINT LeftHip
 {
  OFFSET 7.771700 -0.012900 -0.001300
  CHANNELS 3 Yrotation Xrotation Zrotation
  JOINT LeftKnee
  {
   OFFSET 0.000000 -40.869800 0.001200
   CHANNELS 3 Yrotation Xrotation Zrotation
   JOINT LeftAnkle
   {
    OFFSET 0.000000 -39.717900 0.002100
    CHANNELS 3 Yrotation Xrotation Zrotation
    JOINT LeftToe
    {
     OFFSET 0.000000 -4.965400 11.033500
     CHANNELS 3 Yrotation Xrotation Zrotation
     End Site
     {
      OFFSET 0.000000 -1.423100 5.872300
     }
    }
   }
  }
 }
}
MOTION
Frames: 13
Frame Time: 0.008333
-76.841523 43.707973 19.139645 177.229024 -18.467643 0.253851 0.419593 16.816724 2.961324 -0.021578 1.789753 0.344872 -0.029889 2.980631 0.573986 0.150270 14.819636 2.923393 -0.523040 14.029794 -2.817977 0.130546 -11.025538 -2.818468 6.679888 0.942929 -6.031612 -9.185987 -8.152761 -2.311784 -160.063487 -74.256183 176.656028 -5.127794 4.030395 -43.477861 -13.166777 -0.168503 -3.353049 14.389561 -8.255204 -1.793622 149.307897 -69.387467 -167.999990 19.247538 14.812329 40.942768 7.390324 -73.975518 1.694778 -138.509908 64.721687 -137.027752 -8.474277 -26.510561 8.505168 -0.093107 -0.706436 -0.019021 -2.240359 -61.119135 -3.638690 175.030974 60.985636 174.595475 -0.067645 -36.935898 0.009053 0.111935 0.083183 0.379069
-76.833354 43.696962 19.108591 177.168483 -18.466570 0.225740 0.438794 16.783926 2.971436 0.003003 1.797695 0.358872 -0.026799 2.970806 0.577254 0.172513 14.797395 2.946212 -0.471438 14.036181 -2.813046 0.144240 -10.964114 -2.837776 6.659657 0.938922 -6.038054 -9.211282 -8.114077 -2.312903 -159.099844 -74.227450 175.797900 -5.205705 4.044307 -43.540775 -13.177117 -0.193455 -3.322681 14.376638 -8.270423 -1.748926 150.331012 -69.402329 -168.888678 19.133923 14.713015 40.929580 7.307154 -73.977769 1.849274 -138.526267 64.697451 -137.046404 -8.459567 -26.547840 8.517597 -0.112556 -0.693231 -0.022123 -1.926102 -61.073537 -3.678533 175.108032 60.927879 174.736684 -0.186540 -37.110255 0.133638 0.104978 0.134534 0.351456
-76.826149 43.686426 19.077404 177.107907 -18.468316 0.188836 0.505148 16.781114 3.023664 -0.042533 1.760520 0.335221 0.003817 2.977612 0.593893 0.198550 14.804932 2.963506 -0.459782 14.049327 -2.815311 0.182144 -10.957843 -2.841651 6.633935 0.884630 -6.037743 -9.234492 -8.061051 -2.314315 -158.175997 -74.206285 174.987067 -5.288388 4.074063 -43.600475 -13.182814 -0.247668 -3.277910 14.361915 -8.286906 -1.691917 151.212365 -69.402190 -169.669884 19.037911 14.624537 40.917524 7.193965 -73.978086 2.037084 -138.520853 64.668061 -137.051571 -8.409053 -26.565324 8.497951 -0.142567 -0.693710 -0.005399 -1.644273 -61.019919 -3.689905 175.182343 60.873801 174.867967 -0.302873 -37.301998 0.262481 0.097437 0.191296 0.323131
-76.818264 43.676537 19.047191 177.051445 -18.467276 0.130503 0.553502 16.769517 3.079354 -0.042745 1.756262 0.338696 0.011296 2.966791 0.595960 0.222173 14.806378 2.980560 -0.448509 14.060077 -2.816488 0.216056 -10.962723 -2.838680 6.612174 0.846321 -6.038313 -9.246605 -8.018577 -2.312521 -157.365935 -74.182843 174.271873 -5.383476 4.118176 -43.662405 -13.186664 -0.304261 -3.233081 14.346818 -8.302723 -1.624935 151.958369 -69.390079 -170.349707 18.957435 14.551976 40.907510 7.079281 -73.973531 2.257743 -138.445949 64.632036 -136.971437 -8.415242 -26.586622 8.509109 -0.131008 -0.667535 0.010403 -1.425193 -60.964935 -3.647105 175.264774 60.825141 174.998307 -0.405842 -37.512109 0.391212 0.086036 0.256087 0.293146
-76.814073 43.667312 19.019032 177.023374 -18.456651 0.068319 0.566784 16.749800 3.128252 -0.029222 1.755370 0.346153 0.006533 2.953872 0.593992 0.255484 14.741456 3.021351 -0.408511 14.078574 -2.810913 0.209665 -10.920039 -2.849961 6.591106 0.907469 -6.056441 -9.263410 -8.005836 -2.302558 -156.690023 -74.162656 173.678783 -5.484250 4.173180 -43.725940 -13.201333 -0.299188 -3.223133 14.333369 -8.321196 -1.552290 152.584945 -69.369143 -170.937876 18.893462 14.495969 40.897562 6.935982 -73.983625 2.467016 -138.396615 64.603243 -136.930056 -8.432818 -26.651779 8.533547 -0.113189 -0.571572 0.003697 -1.252938 -60.916780 -3.604212 175.370063 60.785562 175.138721 -0.474792 -37.726240 0.512039 0.063420 0.318071 0.260112
-76.825956 43.659391 18.991487 176.979397 -18.443059 0.091049 0.560636 16.724255 3.088598 0.007761 1.766172 0.361253 -0.015385 2.924314 0.588318 0.286924 14.753182 3.036439 -0.388337 14.060396 -2.798003 0.218721 -10.906675 -2.853441 6.578449 0.901338 -6.059015 -9.272125 -7.993740 -2.292248 -156.393582 -74.162671 173.430824 -5.643325 4.230454 -43.781243 -13.210363 -0.344484 -3.172248 14.322060 -8.346462 -1.476802 153.111670 -69.342712 -171.451576 18.847167 14.459279 40.879069 7.043983 -73.993056 2.414524 -138.320533 64.560707 -136.912540 -8.377112 -26.653451 8.597750 -0.157143 -0.565095 -0.016969 -0.947259 -60.869651 -3.723684 175.501273 60.764153 175.287679 -0.549325 -37.930825 0.639073 0.060887 0.373508 0.240269
-76.834179 43.653020 18.965608 176.942475 -18.428305 0.074868 0.574126 16.703946 3.099436 0.017711 1.760174 0.362075 -0.003858 2.926462 0.593877 0.298261 14.741991 3.047261 -0.375612 14.040286 -2.784847 0.214212 -10.873868 -2.865964 6.556877 0.867075 -6.062417 -9.260838 -7.954654 -2.287227 -156.130029 -74.165149 173.206746 -5.760350 4.290987 -43.851292 -13.223475 -0.379462 -3.120057 14.317361 -8.375636 -1.397555 153.547357 -69.311857 -171.899586 18.807360 14.443363 40.837334 7.019480 -74.010520 2.490571 -138.291151 64.543013 -136.905294 -8.375837 -26.605192 8.591554 -0.160891 -0.599534 0.013179 -0.723938 -60.825595 -3.767804 175.665217 60.745244 175.467625 -0.595363 -38.138510 0.756962 0.051627 0.426661 0.220931
-76.842593 43.647964 18.942634 176.900061 -18.405449 0.049075 0.599834 16.678155 3.127191 -0.002951 1.746164 0.358396 0.023972 2.927598 0.599587 0.302982 14.685230 3.076909 -0.366801 14.093257 -2.807742 0.237453 -10.897315 -2.856941 6.547510 0.890776 -6.079744 -9.238751 -7.911987 -2.294955 -155.477475 -74.151173 172.653903 -5.722867 4.336101 -43.987931 -13.227019 -0.363738 -3.105793 14.316898 -8.400869 -1.311815 153.899964 -69.273583 -172.281794 18.759730 14.445887 40.763393 7.012229 -74.037038 2.563997 -138.279431 64.529358 -136.899427 -8.392038 -26.565883 8.597372 -0.142968 -0.605063 0.025990 -0.519634 -60.792102 -3.791486 175.840516 60.729602 175.658571 -0.629819 -38.340267 0.872022 0.041119 0.472423 0.202764
-76.852439 43.644079 18.923308 176.838244 -18.371385 0.028900 0.644875 16.642283 3.156575 0.003824 1.743117 0.359102 0.018109 2.915612 0.601433 0.321126 14.685926 3.082285 -0.357973 14.088388 -2.804316 0.256027 -10.926415 -2.848234 6.538759 0.857255 -6.084005 -9.220038 -7.870885 -2.298310 -155.160442 -74.154126 172.418634 -5.728524 4.373021 -44.121759 -13.240566 -0.398025 -3.056839 14.313434 -8.417509 -1.221645 154.192129 -69.229860 -172.609115 18.699452 14.461786 40.658096 7.028583 -74.073813 2.625135 -138.296866 64.527572 -136.918821 -8.413058 -26.543353 8.610943 -0.146605 -0.591943 0.024374 -0.303239 -60.773514 -3.811924 176.010046 60.715648 175.841925 -0.667886 -38.527716 0.990488 0.035818 0.549188 0.205575
-76.867336 43.638447 18.916365 176.876841 -18.271763 -0.000379 0.600856 16.542120 3.168145 0.009968 1.742412 0.359444 0.003083 2.903367 0.598831 0.336362 14.684468 3.088514 -0.345324 14.062491 -2.792251 0.275168 -10.975449 -2.828504 6.531829 0.831354 -6.086021 -9.175860 -7.868969 -2.287222 -155.041059 -74.191015 172.350466 -5.738829 4.416996 -44.248638 -13.258870 -0.435476 -3.007701 14.307372 -8.426917 -1.130603 154.442113 -69.186511 -172.898335 18.629883 14.482781 40.529376 7.086827 -74.174697 2.549537 -138.321480 64.522701 -136.930568 -8.457927 -26.527929 8.620647 -0.124948 -0.567711 0.032059 -0.133855 -60.903112 -3.893972 176.142646 60.703898 175.974948 -0.702294 -38.543231 1.122802 0.011526 0.539091 0.197974
-76.879079 43.637982 18.901252 176.841894 -18.240103 -0.022146 0.631324 16.509994 3.198009 -0.001277 1.737620 0.359480 -0.009941 2.889234 0.600185 0.345610 14.659357 3.101245 -0.329635 14.042416 -2.784495 0.284797 -10.970976 -2.832764 6.536440 0.803843 -6.112275 -9.130125 -7.809940 -2.282752 -154.964483 -74.198796 172.340389 -5.739337 4.466474 -44.370862 -13.263962 -0.447887 -2.985102 14.299163 -8.431477 -1.038479 154.656812 -69.145374 -173.158560 18.555524 14.498757 40.384940 7.053298 -74.210543 2.623991 -138.333881 64.521860 -136.941628 -8.485859 -26.516788 8.614871 -0.113922 -0.543336 0.038399 0.069352 -60.900353 -3.926084 176.272353 60.686491 176.119154 -0.768060 -38.672446 1.257028 0.005742 0.527364 0.175176
-76.893503 43.639545 18.886903 176.822602 -18.219539 -0.028923 0.628890 16.497284 3.202286 0.006662 1.728281 0.361058 -0.000082 2.888582 0.600192 0.348283 14.657190 3.102576 -0.335172 14.008697 -2.768679 0.293798 -10.955433 -2.841460 6.536069 0.800377 -6.114969 -9.117561 -7.805600 -2.280953 -154.900313 -74.192516 172.361982 -5.736027 4.516967 -44.470085 -13.292754 -0.494256 -2.936622 14.288162 -8.432083 -0.945914 154.847935 -69.108182 -173.400425 18.478799 14.498632 40.231143 7.098049 -74.234956 2.609510 -138.385443 64.524140 -136.994936 -8.524999 -26.514721 8.626846 -0.084955 -0.520244 0.042970 0.291633 -60.899901 -3.997128 176.371945 60.666614 176.230860 -0.853186 -38.744665 1.408382 0.007063 0.408210 0.121055
-76.906984 43.642393 18.875480 176.817620 -18.198799 -0.040065 0.629784 16.483714 3.209733 0.006090 1.722340 0.364211 0.003850 2.885108 0.600213 0.341909 14.640232 3.106087 -0.336975 14.005606 -2.763343 0.299666 -10.955376 -2.843625 6.536710 0.789474 -6.121478 -9.002393 -7.801304 -2.273647 -154.969120 -74.215524 172.430245 -5.729798 4.563826 -44.522614 -13.320327 -0.525898 -2.899721 14.276855 -8.431070 -0.851613 155.015190 -69.075314 -173.625741 18.403191 14.480499 40.080206 7.106275 -74.260664 2.617505 -138.452232 64.531201 -137.067274 -8.574144 -26.511715 8.643185 -0.071466 -0.507384 0.041746 0.489548 -60.889675 -4.083154 176.406888 60.660457 176.302063 -0.935177 -38.854950 1.507043 0.022760 0.383847 0.106555
